# xmcd
#
# Track frame offsets:
#  150
#  18002
#  35848
#  51853
#  72318
#  91050
#  106313
#  128924
#  147422
#
# Disc length: 2133 seconds
#
# Revision: 0
# Processed by: cddbd v1.4b42PL1 Copyright (c) Steve Scherf et al.
# Submitted via: AltoMP3 Maker 3.0
#
DISCID=78085309
DTITLE=Jay Hooks - Hooked Up
DYEAR=1900
DGENRE=
TTITLE0=Greenlight
TTITLE1=Ridin' the blind
TTITLE2=Strait Whiskey
TTITLE3=All your lovin'
TTITLE4=AKO's
TTITLE5=I don't believe
TTITLE6=Right place wrong time
TTITLE7=Smothered
TTITLE8=Villa nova junction
EXTD=
EXTT0=
EXTT1=
EXTT2=
EXTT3=
EXTT4=
EXTT5=
EXTT6=
EXTT7=
EXTT8=
PLAYORDER=
